<?xml version="1.0" standalone="no"?>
<!DOCTYPE svg PUBLIC "-//W3C//DTD SVG 20010904//EN"
 "http://www.w3.org/TR/2001/REC-SVG-20010904/DTD/svg10.dtd">
<svg version="1.0" xmlns="http://www.w3.org/2000/svg"
 width="4501.000000pt" height="4501.000000pt" viewBox="0 0 4501.000000 4501.000000"
 preserveAspectRatio="xMidYMid meet">

<g transform="translate(0.000000,4501.000000) scale(0.100000,-0.100000)"
fill="#000000" stroke="none">
<path d="M24135 33584 c-16 -3 -39 -9 -50 -13 -11 -5 -49 -16 -85 -25 -72 -19
-223 -88 -254 -117 -11 -11 -23 -19 -27 -19 -4 0 -28 -18 -54 -39 l-47 -39
-327 0 c-327 -1 -423 -7 -826 -51 -313 -35 -593 -83 -785 -135 -52 -14 -103
-26 -113 -26 -9 0 -32 15 -50 34 -17 19 -59 55 -92 79 -33 25 -72 55 -87 67
-39 30 -204 105 -263 120 -27 6 -61 17 -74 23 -15 8 -82 12 -180 12 -159 0
-184 -4 -321 -53 -48 -17 -202 -92 -210 -102 -3 -3 -37 -30 -75 -60 -39 -30
-95 -82 -125 -115 -29 -33 -59 -64 -66 -70 -7 -5 -37 -48 -68 -95 -31 -47 -61
-91 -67 -98 -9 -11 -51 -97 -129 -267 -19 -41 -83 -269 -96 -338 -4 -26 -16
-44 -38 -59 -17 -12 -33 -25 -36 -28 -3 -3 -23 -18 -45 -35 -22 -16 -42 -31
-45 -35 -3 -3 -34 -28 -69 -55 -35 -28 -73 -59 -86 -70 -12 -11 -47 -40 -76
-65 -67 -56 -356 -345 -426 -425 -122 -140 -293 -357 -339 -430 -10 -16 -21
-32 -25 -35 -3 -3 -19 -25 -35 -49 -16 -24 -32 -49 -36 -55 -86 -126 -265
-444 -332 -588 -20 -43 -51 -111 -70 -150 -18 -40 -37 -84 -41 -98 -4 -14 -11
-29 -15 -35 -4 -5 -18 -41 -31 -80 -13 -38 -26 -72 -29 -75 -8 -7 -107 -312
-121 -375 -7 -27 -15 -54 -19 -60 -9 -11 -57 -229 -95 -425 -13 -69 -29 -145
-35 -170 -41 -177 -66 -748 -51 -1151 11 -270 31 -516 51 -594 5 -22 17 -80
25 -130 9 -49 23 -118 31 -152 18 -71 22 -62 -61 -128 -61 -48 -404 -390 -465
-464 -25 -29 -52 -61 -61 -70 -8 -9 -29 -34 -45 -56 -16 -22 -36 -49 -46 -60
-52 -64 -87 -109 -123 -160 -22 -32 -44 -63 -50 -69 -18 -21 -169 -253 -238
-366 -89 -146 -337 -612 -337 -633 0 -3 -17 -43 -39 -89 -21 -46 -42 -94 -46
-108 -4 -14 -11 -27 -14 -30 -4 -3 -20 -39 -36 -80 -16 -41 -32 -79 -35 -85
-4 -5 -15 -32 -25 -60 -10 -27 -26 -68 -35 -90 -27 -62 -100 -254 -117 -310
-8 -27 -19 -54 -23 -60 -11 -14 -137 -393 -165 -498 -18 -67 -21 -89 -11 -93
7 -3 53 -15 102 -28 239 -64 291 -79 319 -91 17 -7 65 -23 108 -35 42 -11 93
-28 113 -36 20 -8 38 -13 41 -11 2 3 10 27 18 53 33 118 66 231 75 249 5 11
32 90 61 175 28 85 62 178 74 205 12 28 30 75 40 105 10 30 21 60 25 65 3 6
15 33 25 60 27 74 115 287 178 430 88 199 304 598 397 735 6 8 34 52 64 97 62
96 157 228 206 288 19 23 49 60 65 81 17 21 40 48 52 61 12 12 27 31 35 41 29
42 203 222 213 222 6 0 31 -48 55 -107 24 -60 48 -109 52 -111 4 -2 8 -8 8
-14 0 -11 76 -174 113 -244 57 -107 142 -260 149 -269 5 -5 30 -44 56 -86 92
-147 134 -210 213 -315 75 -101 201 -256 284 -349 94 -106 98 -112 84 -137 -6
-13 -20 -32 -30 -43 -26 -29 -89 -122 -214 -315 -48 -75 -115 -190 -115 -199
0 -5 -4 -11 -9 -13 -9 -3 -206 -388 -268 -523 -77 -168 -93 -205 -93 -210 0
-4 -12 -31 -26 -60 -23 -51 -96 -241 -131 -345 -8 -25 -21 -58 -28 -75 -16
-37 -146 -441 -176 -545 -11 -41 -36 -129 -53 -195 -18 -66 -36 -127 -39 -135
-7 -16 -51 -190 -96 -380 -15 -63 -30 -122 -34 -130 -7 -18 -103 -496 -112
-560 -3 -25 -10 -56 -15 -70 -10 -28 -77 -466 -91 -600 -5 -47 -12 -93 -15
-102 -6 -21 18 -32 116 -55 97 -23 568 -22 710 1 160 26 179 32 195 69 8 18
28 122 45 232 56 372 114 670 189 975 12 47 28 112 35 145 29 121 67 261 76
280 5 11 19 58 30 104 12 46 27 102 34 125 8 22 26 86 41 141 16 55 31 105 35
110 5 6 22 55 38 110 36 120 77 239 96 280 8 17 38 91 66 165 28 74 60 153 70
175 10 22 39 85 64 141 126 278 370 705 465 813 12 13 21 28 21 32 0 4 54 -28
119 -72 66 -43 122 -79 126 -79 3 0 21 -10 38 -23 125 -88 528 -298 752 -392
50 -21 108 -46 130 -55 52 -24 167 -65 280 -101 50 -16 99 -33 110 -39 26 -13
287 -84 385 -105 41 -9 84 -20 95 -25 17 -8 324 -67 440 -85 43 -6 378 -40
565 -57 150 -13 832 -13 980 0 344 32 552 52 610 61 123 19 355 60 400 70 25
6 108 24 185 40 236 52 431 104 750 200 55 17 107 31 115 31 8 -1 25 -15 38
-33 40 -56 90 -131 114 -171 13 -21 28 -46 33 -55 63 -100 211 -401 242 -491
9 -25 19 -49 23 -55 5 -5 20 -46 34 -90 15 -44 31 -89 36 -100 15 -30 57 -171
99 -335 21 -80 41 -152 44 -160 11 -29 79 -349 104 -492 22 -128 52 -345 82
-603 11 -90 39 -471 43 -595 l3 -65 50 -13 c28 -8 65 -17 84 -22 19 -5 161
-12 315 -16 297 -7 441 2 525 33 l44 17 -7 145 c-27 591 -87 1064 -205 1636
-23 110 -46 209 -51 220 -6 11 -21 65 -35 120 -35 144 -83 317 -94 340 -5 11
-35 97 -67 190 -31 94 -60 175 -64 180 -5 6 -18 35 -30 65 -11 30 -27 69 -35
85 -7 17 -25 59 -40 95 -15 36 -30 67 -34 70 -3 3 -17 30 -31 60 -39 86 -215
399 -230 410 -7 5 -30 45 -30 53 0 2 25 20 55 38 137 84 321 234 383 312 123
155 202 290 233 397 7 25 16 50 20 55 17 24 51 159 65 255 28 204 33 352 34
997 0 358 4 654 8 657 9 5 46 -31 73 -71 8 -11 64 -92 125 -180 62 -87 126
-180 142 -208 17 -27 46 -74 64 -103 46 -74 94 -156 153 -259 27 -48 54 -96
60 -105 28 -46 110 -202 190 -363 50 -99 93 -182 96 -185 4 -3 35 -68 70 -145
35 -77 66 -142 69 -145 7 -6 110 -241 187 -425 29 -71 60 -143 68 -160 15 -32
104 -272 126 -340 7 -22 16 -45 20 -50 8 -11 37 -92 90 -250 17 -49 36 -103
44 -120 7 -16 32 -87 55 -156 l42 -126 111 28 c62 15 155 39 207 52 52 14 115
28 140 32 24 4 51 11 60 15 8 5 52 16 98 26 46 10 85 21 88 25 5 9 -63 237
-76 254 -4 6 -33 89 -65 185 -32 96 -61 180 -65 185 -4 6 -17 39 -29 75 -12
36 -26 74 -31 85 -5 11 -24 63 -41 115 -18 52 -35 97 -39 100 -3 3 -32 75 -64
160 -32 85 -62 160 -66 165 -5 6 -31 64 -58 130 -28 66 -62 143 -76 171 -14
29 -26 55 -26 59 0 4 -15 37 -33 73 -19 37 -42 88 -52 115 -10 26 -21 47 -26
47 -4 0 -11 10 -14 23 -17 55 -321 645 -395 767 -15 25 -42 72 -60 105 -18 33
-38 69 -44 80 -6 11 -13 22 -16 25 -3 3 -30 46 -59 95 -49 82 -171 270 -207
320 -8 11 -38 54 -67 96 -85 124 -205 282 -330 433 -53 65 -119 140 -131 151
-6 6 -28 30 -50 55 -53 63 -278 290 -287 290 -4 0 -10 26 -13 58 -8 63 -55
212 -68 212 -4 0 -8 5 -8 12 0 7 -20 53 -44 103 -51 103 -164 231 -244 277
-173 99 -195 109 -309 137 -159 40 -302 51 -680 52 -175 0 -349 4 -388 9 -130
16 -279 29 -540 50 -143 11 -276 22 -296 25 -145 17 -291 24 -325 16 -282 -69
-392 -125 -527 -265 -98 -103 -167 -218 -209 -351 -51 -160 -63 -212 -78 -335
-6 -52 -15 -104 -20 -115 -13 -32 -30 -230 -37 -423 -7 -220 11 -377 59 -508
37 -102 91 -204 134 -252 77 -86 113 -121 154 -149 56 -38 212 -116 265 -133
22 -7 45 -16 50 -20 24 -16 215 -59 360 -81 97 -15 100 -16 84 -35 -45 -54
-216 -159 -307 -189 -29 -9 -59 -23 -66 -31 -27 -26 -331 -174 -412 -199 -160
-50 -424 -83 -669 -83 -184 0 -278 7 -460 36 -176 28 -429 88 -473 111 -9 6
-42 17 -72 27 -30 9 -95 34 -145 55 -95 40 -367 176 -375 188 -3 3 -43 31 -90
61 -47 30 -115 79 -151 110 -37 30 -84 69 -106 87 -43 35 -240 235 -295 298
-151 174 -321 452 -403 655 -25 63 -52 129 -59 145 -31 68 -78 238 -102 365
-14 74 -29 149 -34 165 -26 83 -42 372 -36 625 7 293 29 474 90 735 19 83 75
255 87 271 5 6 18 37 29 68 10 31 44 107 75 169 160 323 370 597 628 820 126
108 133 114 179 144 24 15 48 33 53 39 15 16 100 71 148 96 23 11 44 24 47 28
4 6 124 65 285 140 83 39 317 113 460 145 140 31 349 56 515 61 l175 5 54 -76
c118 -165 278 -304 447 -387 88 -44 114 -53 233 -78 118 -25 219 -25 341 0
137 27 240 70 370 153 l54 35 46 -23 c25 -13 140 -74 255 -137 204 -111 256
-135 380 -178 200 -69 366 -68 556 4 72 27 161 68 169 77 3 3 16 12 30 19 26
13 154 96 180 117 8 7 46 35 85 63 38 28 72 55 75 59 3 4 15 14 28 23 79 54
365 332 451 438 34 41 66 81 73 89 21 25 145 256 159 296 10 28 14 89 14 210
-1 185 2 172 -73 310 -64 118 -93 163 -137 210 -26 28 -59 64 -73 80 -15 17
-57 54 -92 83 -36 29 -72 58 -80 65 -83 69 -340 243 -445 302 -121 68 -180 99
-340 179 -181 90 -377 176 -400 176 -7 0 -15 4 -17 9 -3 10 -482 172 -545 186
-22 4 -42 20 -65 51 -77 103 -227 241 -309 284 -13 7 -26 16 -29 21 -11 16
-149 78 -220 99 -41 11 -83 26 -94 31 -19 11 -250 21 -301 13z m555 -132 c58
-26 198 -176 262 -281 41 -66 44 -95 6 -45 -62 79 -174 194 -218 224 -19 13
-37 27 -40 30 -3 3 -26 23 -52 44 -27 21 -48 42 -48 47 0 11 43 2 90 -19z
m-226 -97 c95 -13 118 -20 178 -54 38 -22 78 -43 88 -46 11 -4 20 -10 20 -14
0 -5 13 -14 30 -21 28 -11 64 -47 206 -198 32 -35 73 -91 91 -125 18 -34 32
-58 33 -53 0 14 50 -56 50 -70 0 -7 3 -14 8 -16 12 -5 42 -78 32 -78 -5 0 -45
12 -87 27 -104 35 -266 43 -377 18 -149 -33 -303 -130 -392 -248 -160 -210
-188 -484 -75 -712 76 -152 176 -252 326 -325 193 -93 406 -92 600 4 49 24 91
43 93 41 5 -4 -38 -158 -48 -170 -4 -5 -13 -32 -19 -59 -17 -70 -163 -333
-216 -392 -159 -173 -192 -201 -297 -253 -96 -47 -109 -51 -176 -51 -56 0 -94
7 -162 31 -50 17 -90 35 -90 39 0 4 -18 12 -41 19 -66 20 -133 69 -245 178
-29 28 -62 54 -73 58 -12 3 -21 10 -21 15 0 4 -23 30 -51 57 -28 26 -90 93
-137 147 -48 55 -95 106 -104 115 -10 8 -18 19 -18 24 0 4 -8 16 -17 27 -10
10 -36 54 -58 97 -22 43 -55 105 -75 138 -19 33 -41 78 -48 100 -7 22 -17 49
-21 60 -28 68 -46 188 -45 295 2 149 22 352 40 407 8 24 24 78 34 121 21 82
75 227 94 252 6 8 34 59 61 114 28 54 64 113 80 130 17 18 66 71 109 119 72
79 102 101 241 184 58 35 115 54 198 67 120 18 150 18 281 1z m-3544 -115 c14
-5 47 -11 74 -14 34 -4 87 -27 173 -74 115 -62 133 -76 241 -186 118 -121 126
-132 183 -241 17 -33 35 -62 39 -65 4 -3 15 -19 24 -37 l16 -32 -65 30 c-198
89 -436 82 -630 -19 -106 -55 -229 -182 -283 -292 -57 -116 -73 -184 -73 -310
0 -125 16 -194 71 -306 108 -220 336 -369 585 -381 171 -8 338 45 465 148 79
65 82 66 74 32 -41 -178 -107 -398 -124 -413 -5 -5 -67 -99 -135 -208 -105
-169 -249 -311 -382 -379 -64 -32 -81 -36 -145 -36 -71 0 -197 26 -208 42 -3
4 -23 14 -45 21 -44 14 -190 87 -208 104 -7 6 -32 24 -57 41 -25 16 -47 32
-50 35 -3 4 -21 16 -42 28 -20 12 -39 29 -42 37 -3 8 -14 15 -24 15 -11 0 -41
25 -68 57 -27 31 -60 65 -73 77 -136 122 -267 276 -286 336 -4 14 -20 52 -36
85 -21 45 -34 99 -50 215 -47 318 -29 552 69 905 23 85 155 347 199 395 17 19
65 76 107 125 43 50 94 98 114 109 20 10 39 22 42 26 3 4 41 28 85 53 57 33
103 51 160 62 44 9 96 20 115 24 39 10 151 4 190 -9z m509 -89 c31 -30 76 -63
101 -74 84 -37 166 -128 195 -217 17 -52 34 -164 30 -200 -1 -14 -3 -38 -4
-55 -2 -28 -4 -27 -31 25 -16 30 -36 71 -45 90 -16 36 -103 187 -117 205 -5 6
-31 45 -59 89 -28 43 -82 111 -120 151 -38 40 -69 75 -69 79 0 11 61 -36 119
-93z m3901 -746 c115 -59 53 -213 -107 -266 -19 -6 -66 -9 -104 -7 -59 3 -72
8 -99 33 -24 23 -30 37 -30 72 0 37 6 50 42 89 41 45 79 70 128 85 44 13 139
10 170 -6z m-3569 -68 c44 -29 56 -64 40 -116 -14 -47 -56 -93 -115 -124 -33
-17 -58 -22 -128 -22 -82 0 -88 2 -117 29 -40 38 -46 68 -22 120 34 79 135
135 242 136 52 0 73 -5 100 -23z m3525 -300 c145 -74 192 -213 120 -362 -50
-106 -160 -194 -306 -247 -56 -20 -84 -23 -205 -23 -121 0 -149 3 -208 24 -90
31 -113 52 -142 136 -45 129 -31 297 36 409 20 35 39 40 39 10 0 -56 102 -165
174 -186 67 -20 164 -15 218 11 94 45 157 143 158 245 l0 58 33 -24 c17 -14
55 -37 83 -51z m-3598 -51 c168 -84 216 -231 127 -390 -20 -36 -55 -82 -78
-102 -184 -157 -438 -202 -661 -116 -64 25 -72 31 -94 75 -67 135 -66 295 3
435 l38 76 13 -42 c61 -207 341 -267 484 -105 45 52 70 117 70 187 l0 49 23
-20 c12 -12 46 -33 75 -47z m2788 -7578 c-3 -18 -8 -204 -11 -413 -3 -209 -8
-394 -11 -412 -3 -18 -21 -49 -42 -73 l-38 -40 -357 0 -357 0 -39 25 c-36 24
-51 45 -66 90 -5 17 -9 14 -28 -20 -36 -64 -50 -66 -438 -63 l-337 3 -44 30
c-42 30 -79 87 -79 122 1 22 19 175 27 226 4 21 12 41 19 43 6 3 113 6 236 8
217 2 286 8 492 42 54 9 109 13 122 10 25 -6 25 -8 27 -129 1 -67 3 -102 4
-77 6 94 27 206 41 222 8 9 49 29 91 44 43 15 82 31 88 36 6 4 28 14 50 22 44
15 213 96 259 124 17 9 64 37 105 62 41 24 80 49 85 55 27 30 151 95 184 95
21 0 23 -3 17 -32z"/>
<path d="M15220 23112 c0 -17 40 -51 75 -63 22 -8 35 -20 35 -30 0 -14 11 -19
48 -24 26 -3 72 -10 102 -15 30 -6 91 -14 134 -20 43 -5 84 -14 90 -19 6 -5
27 -11 46 -14 19 -3 51 -10 70 -15 77 -23 159 -44 240 -62 89 -20 341 -99 350
-111 3 -3 28 -14 57 -23 28 -10 63 -26 76 -36 26 -21 131 -36 174 -25 23 5 25
8 12 16 -23 12 -232 84 -304 104 -33 10 -73 23 -90 31 -31 14 -140 48 -285 89
-47 13 -107 31 -135 41 -86 29 -488 139 -604 165 -99 22 -91 21 -91 11z"/>
<path d="M30035 22665 c-67 -17 -36 -18 40 -1 33 8 49 14 35 14 -14 0 -47 -6
-75 -13z"/>
<path d="M29958 22643 c7 -3 16 -2 19 1 4 3 -2 6 -13 5 -11 0 -14 -3 -6 -6z"/>
<path d="M29875 22633 c-11 -2 -47 -11 -80 -19 -33 -8 -151 -31 -263 -50 -180
-30 -222 -34 -375 -33 -171 0 -245 -10 -254 -37 -5 -15 45 -74 63 -74 8 0 14
-5 14 -11 0 -11 19 -10 91 7 26 6 26 5 32 -65 7 -87 14 -101 36 -73 35 44 329
192 441 222 66 18 126 50 110 60 -8 5 -1 11 21 18 30 10 159 43 214 55 15 4
14 5 -5 5 -14 0 -34 -2 -45 -5z"/>
<path d="M15696 21448 c4 -68 8 -124 9 -126 2 -2 8 35 15 82 10 68 11 94 1
126 -22 74 -31 44 -25 -82z"/>
<path d="M14960 21275 c0 -9 4 -25 10 -35 14 -26 41 -125 51 -185 6 -40 7 -31
4 40 -2 58 -10 108 -23 140 -19 49 -42 71 -42 40z"/>
<path d="M14841 21264 c0 -11 3 -14 6 -6 3 7 2 16 -1 19 -3 4 -6 -2 -5 -13z"/>
<path d="M15204 21200 c2 -14 12 -50 21 -80 12 -36 20 -111 24 -220 l7 -165 2
185 c2 193 -5 243 -39 282 l-20 23 5 -25z"/>
<path d="M29653 21125 c-31 -22 -34 -91 -11 -276 30 -233 33 -355 13 -437 -19
-73 -60 -162 -75 -162 -6 0 -10 -5 -10 -12 0 -18 69 -240 85 -273 8 -16 32
-79 54 -140 46 -130 70 -188 81 -195 4 -3 15 -23 25 -44 24 -49 80 -106 105
-106 11 0 20 -4 20 -10 0 -5 15 -10 33 -10 32 0 32 0 -20 30 -28 16 -54 39
-58 50 -4 12 -19 36 -34 53 -29 34 -82 175 -99 267 -30 154 -34 209 -28 349 6
160 -3 307 -28 446 -12 63 -17 147 -17 276 0 102 -4 190 -8 197 -5 9 -12 8
-28 -3z"/>
<path d="M15032 20960 c0 -19 2 -27 5 -17 2 9 2 25 0 35 -3 9 -5 1 -5 -18z"/>
<path d="M30771 20884 c-6 -22 -12 -122 -15 -224 -4 -165 -4 -173 5 -75 20
243 26 330 23 334 -1 1 -7 -14 -13 -35z"/>
<path d="M30514 20825 c-17 -36 -19 -63 -18 -300 0 -164 7 -329 18 -445 9
-102 20 -266 23 -365 l6 -181 32 4 32 4 -17 56 c-16 54 -37 233 -61 527 -19
223 -19 408 -3 551 8 73 14 146 12 161 -4 28 -4 28 -24 -12z"/>
<path d="M30194 20763 c-13 -21 -20 -62 -27 -163 -10 -132 -1 -317 34 -715 5
-60 7 -150 4 -198 -6 -84 -12 -105 -56 -175 -11 -17 -10 -27 6 -62 11 -24 34
-59 52 -79 18 -20 33 -39 33 -43 0 -17 110 -38 110 -21 0 4 -13 21 -30 38
l-29 30 -16 254 c-8 139 -19 269 -24 290 -21 79 -44 499 -38 686 3 102 4 185
2 185 -1 0 -11 -12 -21 -27z"/>
<path d="M15667 20701 c3 -11 14 -29 25 -41 22 -23 106 -65 114 -57 3 2 -9 10
-26 17 -16 7 -44 29 -62 49 -40 46 -58 57 -51 32z"/>
<path d="M29133 20659 c47 -151 102 -299 114 -308 4 -3 18 -27 31 -53 30 -61
86 -108 129 -108 18 0 33 3 33 7 0 4 -17 23 -37 43 -74 71 -138 151 -144 178
-3 15 -10 26 -17 25 -6 -2 -15 9 -18 25 -4 15 -20 55 -36 89 -15 34 -28 65
-28 70 0 5 -7 18 -16 29 -12 14 -14 15 -11 3z"/>
<path d="M30763 20350 c0 -41 2 -58 4 -37 2 20 2 54 0 75 -2 20 -4 3 -4 -38z"/>
<path d="M14846 20275 c4 -8 8 -15 10 -15 2 0 4 7 4 15 0 8 -4 15 -10 15 -5 0
-7 -7 -4 -15z"/>
<path d="M30765 20115 c2 -60 4 -125 5 -142 0 -26 4 -33 20 -33 24 0 25 18 5
67 -8 19 -15 59 -16 87 0 28 -4 69 -9 91 -6 28 -7 8 -5 -70z"/>
<path d="M15221 20140 c-7 -199 -5 -225 19 -258 19 -26 33 -32 92 -42 81 -14
99 -8 33 10 -25 7 -45 16 -45 20 0 4 -11 12 -26 18 -38 18 -56 73 -64 202 -5
89 -7 100 -9 50z"/>
<path d="M14947 19919 c-19 -21 -15 -39 8 -39 7 0 16 -6 18 -12 3 -7 6 6 6 30
1 46 -5 50 -32 21z"/>
<path d="M15428 19823 c7 -3 16 -2 19 1 4 3 -2 6 -13 5 -11 0 -14 -3 -6 -6z"/>
<path d="M17130 19439 c7 -13 27 -43 43 -67 22 -31 28 -45 20 -53 -19 -19 5
-69 32 -69 27 0 85 51 85 74 0 9 20 25 46 37 32 15 42 24 32 30 -7 5 -23 6
-36 2 -13 -3 -33 -1 -45 5 -12 5 -51 19 -87 30 -36 11 -73 24 -84 28 -17 6
-17 5 -6 -17z"/>
<path d="M26387 19434 c-3 -4 5 -23 18 -43 14 -19 25 -47 25 -62 0 -30 18 -48
77 -78 49 -25 53 -25 53 -8 0 20 61 62 128 86 68 26 80 41 29 41 -18 0 -60 7
-92 16 -86 23 -215 54 -224 54 -4 0 -10 -3 -14 -6z"/>
<path d="M26020 17852 c0 -14 70 -65 142 -104 126 -69 354 -121 583 -132 117
-6 110 -3 -45 19 -63 9 -124 21 -135 26 -11 5 -42 13 -70 19 -61 13 -139 37
-182 56 -17 8 -34 14 -37 14 -3 0 -30 12 -59 26 -28 14 -68 32 -87 39 -19 7
-52 20 -72 29 -21 9 -38 12 -38 8z"/>
<path d="M16385 17838 c5 -12 25 -27 104 -75 20 -12 41 -25 46 -30 30 -26 187
-69 320 -88 115 -16 305 -30 305 -23 0 3 -57 11 -127 18 -71 7 -137 14 -148
17 -11 3 -38 9 -60 13 -91 20 -286 94 -379 145 -36 19 -63 29 -61 23z"/>
<path d="M17233 17613 c26 -2 68 -2 95 0 26 2 4 3 -48 3 -52 0 -74 -1 -47 -3z"/>
<path d="M26870 17600 c0 -5 24 -10 53 -9 38 0 47 3 32 9 -28 12 -85 12 -85 0z"/>
<path d="M27728 17593 c7 -3 16 -2 19 1 4 3 -2 6 -13 5 -11 0 -14 -3 -6 -6z"/>
<path d="M27188 17583 c39 -2 105 -2 145 0 39 1 7 3 -73 3 -80 0 -112 -2 -72
-3z"/>
<path d="M27438 17583 c17 -2 47 -2 65 0 17 2 3 4 -33 4 -36 0 -50 -2 -32 -4z"/>
<path d="M12333 16659 c-99 -12 -344 -74 -443 -111 -204 -75 -494 -293 -636
-478 -208 -269 -281 -434 -353 -799 -31 -156 -30 -416 3 -571 65 -306 113
-439 212 -591 149 -225 263 -348 455 -487 182 -130 298 -184 517 -237 81 -20
165 -41 187 -46 64 -17 389 -23 470 -9 169 29 349 73 430 105 17 7 46 18 65
25 75 30 260 140 268 162 2 4 8 8 14 8 17 0 170 126 234 192 34 35 82 90 108
123 25 33 51 65 56 72 6 7 10 17 10 23 0 5 4 10 8 10 4 0 16 15 27 33 10 17
21 34 24 37 23 20 105 191 137 288 86 256 119 522 94 773 -23 243 -99 358
-268 412 -65 20 -89 21 -724 24 -362 2 -658 7 -658 10 0 3 14 28 30 55 17 26
30 53 30 58 0 6 5 10 10 10 6 0 10 4 10 9 0 5 32 64 72 132 112 193 131 230
139 268 4 20 13 56 19 80 8 33 8 57 0 90 -6 25 -15 63 -19 84 -13 58 -75 140
-138 182 -97 64 -227 86 -390 64z m312 -258 c3 -6 -10 -35 -30 -65 -19 -30
-35 -58 -35 -62 0 -4 -6 -15 -14 -23 -7 -9 -27 -41 -43 -71 -17 -30 -58 -101
-92 -158 -33 -57 -61 -108 -61 -112 0 -9 -55 -53 -80 -63 -51 -22 -146 -92
-200 -147 -125 -128 -174 -219 -211 -398 -49 -238 1 -498 132 -688 93 -135
269 -265 433 -319 103 -34 113 -35 254 -35 125 0 161 4 241 25 167 45 234 89
274 180 21 46 67 181 67 195 0 8 48 63 107 122 l108 108 -270 0 -270 0 -105
-105 -104 -104 -38 60 c-21 33 -38 64 -38 69 0 6 -4 10 -10 10 -5 0 -10 4 -10
10 0 5 -15 33 -32 62 -36 57 -43 69 -102 172 l-39 67 109 112 109 112 637 0
c350 0 639 -2 642 -6 12 -12 18 -308 7 -399 -32 -280 -140 -511 -333 -714
-236 -249 -487 -371 -835 -407 -180 -19 -408 8 -588 69 -89 29 -238 111 -325
177 l-85 64 -100 -99 c-55 -55 -103 -100 -106 -100 -10 0 -90 81 -135 135
-194 238 -283 497 -284 825 0 270 63 487 206 711 61 97 111 155 278 327 190
195 323 297 459 353 28 13 57 26 62 30 38 27 265 77 375 82 30 2 58 4 62 5 4
1 9 -2 13 -7z m-465 -1256 c22 -92 19 -87 223 -430 33 -55 73 -119 90 -142 17
-24 28 -46 24 -49 -12 -12 -120 19 -176 50 -78 45 -165 137 -204 216 -31 64
-32 68 -32 210 0 129 3 150 23 194 12 27 24 47 26 45 2 -2 13 -44 26 -94z"/>
<path d="M14667 16650 c-146 -34 -239 -132 -277 -293 -19 -83 -20 -119 -20
-720 0 -625 7 -805 35 -922 7 -33 23 -100 35 -148 21 -90 44 -166 60 -202 56
-126 81 -172 146 -268 42 -62 79 -114 83 -117 3 -3 24 -27 46 -55 127 -161
360 -354 531 -439 127 -63 177 -79 479 -147 82 -19 459 -19 535 -1 30 8 96 23
145 34 210 47 322 94 480 200 103 70 235 177 266 216 11 15 42 50 68 77 48 51
151 189 208 280 67 107 109 218 156 415 61 253 59 238 64 808 5 569 5 579 -45
720 -14 39 -80 117 -136 161 -21 16 -169 60 -202 61 -45 0 -190 -43 -243 -72
-31 -17 -65 -36 -76 -42 -11 -6 -22 -13 -25 -16 -5 -5 -12 -9 -145 -80 -44
-23 -87 -49 -96 -56 -8 -8 -21 -14 -27 -14 -7 0 -12 -4 -12 -9 0 -5 -8 -12
-17 -15 -24 -8 -84 -63 -117 -109 -17 -23 -36 -74 -52 -135 -23 -94 -24 -108
-24 -495 l0 -397 -30 -68 c-39 -84 -140 -190 -225 -235 -59 -31 -63 -32 -195
-32 -132 0 -136 1 -195 32 -82 43 -186 151 -224 233 l-31 65 0 704 c0 735 1
724 -42 861 -31 102 -136 190 -261 220 -114 28 -501 28 -620 0z m683 -985 l5
-740 33 -94 c70 -202 249 -402 439 -492 175 -82 404 -104 576 -54 102 30 217
87 260 130 35 36 97 164 122 255 16 57 19 118 22 490 l4 425 107 108 c75 76
129 121 182 151 41 24 125 71 185 106 158 91 175 100 180 100 3 0 5 -222 5
-492 -1 -593 -10 -706 -77 -898 -32 -93 -91 -209 -147 -289 -57 -82 -205 -241
-280 -300 -114 -89 -271 -169 -391 -200 -27 -7 -66 -16 -85 -21 -19 -5 -92
-14 -162 -21 -246 -24 -524 23 -720 122 -51 26 -193 120 -208 138 -30 36 -36
33 -138 -70 -118 -120 -99 -121 -230 24 -163 180 -250 337 -309 562 l-27 100
-4 739 -3 739 113 114 113 113 215 -2 215 -3 5 -740z"/>
<path d="M18316 16649 c-140 -34 -230 -125 -267 -267 -18 -72 -19 -122 -19
-1387 0 -1251 1 -1316 19 -1388 35 -140 124 -230 265 -268 67 -18 119 -19
1002 -19 796 0 938 2 980 15 27 8 57 15 67 15 11 0 46 19 79 42 66 47 120 119
137 186 6 23 16 61 22 84 11 41 10 46 -22 173 -6 22 -17 50 -25 62 -7 12 -22
37 -33 55 -80 141 -215 363 -246 407 -45 62 -131 123 -200 141 -35 9 -168 15
-435 19 l-385 6 -5 905 c-6 1019 -3 984 -80 1082 -107 134 -189 158 -538 157
-199 0 -250 -4 -316 -20z m694 -1314 l0 -1075 550 0 549 0 38 -66 c21 -36 45
-78 54 -92 70 -116 159 -270 159 -276 0 -3 -406 -6 -902 -6 l-903 0 -107 -107
-108 -108 0 1290 0 1290 112 112 113 113 222 0 223 0 0 -1075z"/>
<path d="M24938 16649 c-153 -37 -242 -124 -278 -272 -19 -75 -20 -108 -17
-323 2 -148 8 -256 15 -283 11 -36 10 -53 -3 -96 -13 -46 -15 -182 -15 -1037
l0 -983 23 -90 c40 -160 125 -247 276 -284 73 -18 114 -21 316 -21 201 0 243
3 315 20 147 37 241 123 270 250 7 30 16 68 21 84 5 16 9 161 9 322 0 162 2
294 5 294 2 0 44 -24 92 -52 48 -29 96 -57 105 -63 63 -36 337 -200 358 -213
14 -9 34 -22 45 -28 44 -24 70 -39 75 -45 3 -3 58 -36 123 -75 65 -38 135 -79
155 -92 20 -12 44 -25 52 -29 8 -4 17 -9 20 -13 3 -3 58 -37 123 -76 65 -38
135 -79 155 -92 20 -12 44 -25 52 -29 8 -4 17 -9 20 -13 3 -3 43 -28 90 -56
63 -37 111 -57 178 -73 l92 -22 88 22 c133 33 233 120 261 227 6 23 16 59 21
81 16 60 12 484 -5 554 -12 50 -12 66 1 113 12 46 14 219 14 1037 0 972 0 983
-22 1072 -38 160 -128 251 -282 286 -117 27 -505 27 -622 0 -152 -34 -242
-124 -282 -281 -20 -78 -22 -109 -22 -377 0 -161 -3 -293 -8 -293 -4 0 -16 6
-27 14 -11 7 -36 23 -55 34 -19 11 -100 59 -180 107 -80 49 -158 96 -175 105
-16 10 -95 57 -175 105 -80 49 -158 96 -175 105 -16 10 -101 61 -189 114 -87
53 -160 96 -162 96 -2 0 -28 15 -57 34 -29 19 -71 45 -93 58 -23 12 -93 54
-158 92 -91 53 -134 72 -199 87 -45 10 -84 18 -87 18 -3 -1 -40 -9 -82 -20z
m2809 -1231 c1 -920 0 -988 -15 -988 -9 0 -28 9 -42 20 -14 11 -29 20 -33 20
-4 0 -20 9 -35 19 -15 11 -71 45 -126 78 -54 32 -115 68 -135 81 -20 12 -45
27 -56 32 -11 6 -60 35 -109 65 -50 31 -96 53 -102 51 -7 -3 -11 0 -8 7 2 7
-10 18 -28 26 -18 8 -35 17 -38 20 -3 4 -17 14 -31 23 -25 16 -27 15 -55 -10
l-28 -27 23 27 c26 30 26 30 -5 46 -18 9 -25 8 -40 -9 -11 -12 -21 -16 -27
-10 -6 6 -4 16 7 26 9 9 16 19 16 22 0 7 -29 -18 -86 -76 -24 -24 -47 -42 -50
-39 -3 4 22 33 55 66 l61 59 -22 15 c-52 34 -60 31 -126 -35 l-63 -63 24 -13
c23 -12 28 -10 83 48 33 33 63 61 69 61 5 0 -19 -29 -55 -65 -35 -35 -62 -66
-59 -67 41 -26 43 -25 87 20 27 29 46 42 52 36 7 -7 -4 -24 -30 -49 -40 -39
-49 -55 -31 -55 5 0 37 -18 70 -40 33 -22 65 -40 71 -40 5 0 10 -4 10 -10 0
-5 6 -10 14 -10 8 0 16 -4 18 -8 3 -7 187 -121 213 -131 6 -2 24 -15 41 -28
17 -12 34 -23 38 -23 4 0 26 -13 49 -29 23 -15 58 -37 77 -47 35 -20 61 -36
205 -129 44 -28 97 -62 118 -74 l37 -23 0 -209 c0 -115 -4 -209 -9 -209 -7 0
-49 24 -182 103 -16 9 -42 25 -59 35 -16 9 -66 40 -111 67 -45 28 -94 57 -108
65 -14 9 -37 23 -51 31 -30 20 -421 252 -435 259 -5 3 -21 12 -35 21 -14 9
-96 59 -183 110 -87 52 -171 102 -188 112 -16 9 -42 25 -58 35 -17 9 -83 48
-148 86 -65 38 -120 72 -123 75 -3 3 -18 13 -35 21 -16 8 -32 17 -35 20 -3 3
-18 12 -33 19 -28 15 -28 14 -135 -90 l-107 -104 103 105 c56 58 102 109 102
113 0 23 -36 -4 -125 -93 -54 -54 -100 -98 -102 -96 -2 2 42 49 98 104 76 76
98 103 86 108 -11 4 -47 -26 -117 -96 -55 -56 -103 -100 -105 -98 -2 2 41 49
95 103 55 55 100 103 100 107 0 24 -36 -2 -120 -87 l-95 -95 -3 -470 -3 -470
-218 0 c-252 0 -219 12 -356 -127 -45 -46 -85 -83 -88 -83 -4 0 -7 442 -7 983
l0 983 70 69 c39 38 70 72 70 76 0 5 -52 37 -126 77 l-24 13 0 211 0 210 108
109 c60 60 114 109 120 109 7 0 42 -20 79 -43 38 -24 73 -46 78 -48 25 -10
210 -125 213 -131 2 -5 8 -8 13 -8 6 0 35 -16 65 -35 30 -19 56 -35 58 -35 2
0 80 -46 173 -102 93 -57 182 -111 199 -121 16 -9 64 -38 107 -65 42 -26 85
-51 95 -57 10 -5 88 -53 175 -105 86 -52 165 -100 175 -105 17 -10 311 -186
346 -208 93 -57 111 -67 117 -67 5 0 7 206 6 458 l-2 457 110 112 110 112 225
-2 225 -2 2 -987z m-957 -444 c0 -11 -111 -116 -117 -111 -3 3 19 31 48 61 50
51 69 65 69 50z m90 -167 c0 -2 -10 -12 -22 -23 l-23 -19 19 23 c18 21 26 27
26 19z m-1070 -140 c0 -2 -10 -12 -22 -23 l-23 -19 19 23 c18 21 26 27 26 19z"/>
<path d="M26645 14968 l-60 -63 63 60 c34 33 62 61 62 62 0 8 -10 -1 -65 -59z"/>
<path d="M25645 14999 c-11 -17 1 -21 15 -4 8 9 8 15 2 15 -6 0 -14 -5 -17
-11z"/>
<path d="M26677 14954 c-32 -31 -56 -61 -55 -65 2 -5 32 20 68 56 35 36 60 65
54 65 -5 0 -36 -25 -67 -56z"/>
<path d="M25655 14960 c-10 -11 -15 -26 -11 -36 6 -15 8 -15 26 1 11 10 17 23
13 29 -3 6 -3 8 2 4 4 -4 15 -2 24 4 9 7 1 -4 -18 -25 -19 -20 -37 -34 -41
-32 -3 2 -7 -11 -8 -28 l-3 -31 55 54 c48 48 53 55 38 65 -27 18 -59 15 -77
-5z"/>
<path d="M25698 14883 c-51 -52 -56 -62 -56 -102 l-1 -43 57 53 c96 91 116
117 102 134 -22 26 -44 17 -102 -42z m92 42 c0 -9 -134 -134 -139 -129 -2 2
24 33 60 69 58 58 79 74 79 60z"/>
<path d="M20183 16640 c-143 -34 -233 -126 -273 -277 l-22 -82 22 -86 c20 -83
39 -125 133 -290 44 -78 86 -153 113 -205 74 -137 169 -213 297 -235 36 -6 47
-18 27 -30 -19 -12 -47 -80 -63 -153 -15 -66 -15 -79 -1 -140 19 -86 31 -115
71 -179 18 -29 33 -54 33 -57 0 -3 22 -40 48 -83 27 -43 67 -109 89 -148 23
-38 80 -137 129 -220 48 -82 117 -202 154 -265 70 -120 255 -434 270 -460 5
-8 33 -55 61 -105 70 -121 120 -185 171 -221 40 -28 60 -36 164 -63 53 -14
593 -15 645 -1 22 6 58 15 81 21 57 15 120 62 167 124 30 39 43 71 59 140 35
153 9 229 -189 545 -5 8 -36 60 -69 115 l-61 100 333 6 c296 5 340 8 399 27
124 38 228 141 249 248 5 27 14 65 20 84 5 19 10 129 10 245 0 116 -5 226 -10
245 -6 19 -15 58 -21 85 -10 54 -52 122 -107 171 -34 32 -34 32 -13 44 34 18
110 127 117 168 3 20 12 59 20 86 10 36 14 110 14 261 0 151 -4 225 -14 261
-8 27 -17 65 -20 85 -9 50 -75 139 -135 183 -33 23 -77 42 -130 56 -78 20
-103 20 -1388 19 -1208 -1 -1314 -2 -1380 -19z m2827 -464 c0 -195 -2 -225
-16 -230 -9 -3 -537 -6 -1173 -6 l-1158 0 -102 -102 -102 -103 -17 23 c-9 12
-28 43 -42 69 -14 27 -54 100 -90 163 -36 63 -74 131 -84 151 l-19 37 109 110
109 110 1293 1 1292 1 0 -224z m-2 -1063 l-3 -218 -647 -3 -648 -2 19 -33 c10
-17 69 -117 131 -222 62 -104 118 -200 124 -212 6 -13 14 -23 19 -23 4 0 7 -4
7 -8 0 -5 43 -80 95 -167 52 -87 95 -162 95 -166 0 -5 5 -9 10 -9 6 0 10 -4
10 -10 0 -8 23 -48 77 -135 7 -11 19 -31 27 -45 l14 -25 -254 3 c-142 1 -262
-1 -271 -7 -9 -5 -61 -53 -115 -107 -109 -109 -103 -108 -153 -20 -38 66 -172
295 -203 344 -12 20 -25 44 -29 52 -3 8 -11 22 -18 30 -7 8 -27 42 -45 75 -17
33 -35 65 -40 70 -4 6 -19 30 -32 55 -14 25 -69 119 -123 210 -54 91 -106 179
-116 197 -17 29 -47 81 -76 128 -6 11 -42 71 -79 134 l-66 114 108 107 109
108 1038 1 1037 1 -2 -217z"/>
<path d="M28435 16645 c-85 -19 -111 -30 -165 -73 -69 -54 -107 -117 -128
-214 -18 -81 -18 -85 0 -163 21 -90 24 -96 91 -215 27 -47 70 -123 95 -170 55
-102 112 -194 124 -198 4 -2 8 -8 8 -13 0 -13 46 -59 60 -59 5 0 10 -4 10 -8
0 -15 78 -52 123 -58 67 -9 74 -16 48 -53 -12 -16 -32 -70 -45 -119 -23 -88
-23 -89 -5 -158 10 -38 18 -77 18 -86 1 -10 17 -42 36 -72 19 -30 35 -60 35
-66 0 -5 5 -10 10 -10 6 0 10 -5 10 -10 0 -6 17 -39 38 -73 21 -34 58 -96 82
-137 24 -41 54 -92 67 -112 12 -21 23 -40 23 -43 0 -3 16 -31 35 -61 19 -30
35 -56 35 -59 0 -3 16 -29 35 -59 19 -30 35 -59 35 -64 0 -4 5 -13 12 -20 7
-7 26 -37 43 -67 115 -208 404 -693 430 -721 6 -6 19 -23 30 -37 11 -15 25
-27 32 -27 7 0 13 -4 13 -8 0 -15 64 -45 137 -63 65 -16 115 -19 356 -19 154
0 297 4 318 10 22 6 58 15 82 21 107 28 195 131 228 267 l21 88 -21 87 c-17
69 -37 112 -104 224 -45 76 -84 142 -86 148 -2 5 -8 14 -13 20 -5 5 -33 51
-63 100 l-53 90 331 6 c264 5 343 10 387 23 76 22 110 37 110 47 0 5 4 9 10 9
16 0 48 31 89 85 62 84 81 185 81 440 0 302 -27 401 -134 498 l-31 28 25 22
c36 32 96 118 103 147 3 14 12 52 21 85 11 45 15 114 15 280 0 166 -4 235 -15
280 -9 33 -18 71 -21 85 -7 29 -54 101 -85 130 -50 46 -100 72 -177 90 -80 19
-124 20 -1384 19 -1041 -1 -1314 -4 -1362 -14z m2805 -469 c0 -195 -2 -225
-16 -230 -9 -3 -536 -6 -1173 -6 l-1156 0 -100 -100 c-55 -55 -103 -100 -107
-100 -3 0 -13 12 -21 28 -8 15 -42 76 -76 136 -33 60 -61 111 -61 113 0 3 -8
17 -19 31 -10 15 -30 49 -45 76 l-27 49 108 112 108 112 1293 2 1292 1 0 -224z
m-2 -1063 l-3 -218 -642 -3 c-380 -1 -643 -6 -643 -11 0 -5 22 -45 49 -88 27
-43 61 -101 75 -128 15 -28 52 -90 83 -140 31 -49 64 -103 73 -120 9 -16 57
-95 105 -175 48 -80 96 -161 107 -180 11 -19 42 -72 69 -116 27 -45 49 -85 49
-88 0 -3 -115 -6 -256 -6 l-257 0 -109 -107 -109 -108 -18 23 c-9 13 -26 40
-36 60 -11 21 -29 53 -41 72 -13 19 -33 53 -46 76 -33 58 -169 289 -196 332
-12 20 -25 44 -29 52 -3 8 -12 22 -18 30 -7 8 -23 35 -37 60 -13 25 -31 56
-40 70 -9 14 -26 44 -39 67 -38 67 -125 215 -237 403 -58 96 -113 190 -123
208 l-19 32 108 109 107 108 1038 2 1037 1 -2 -217z"/>
<path d="M31815 16626 c-89 -24 -174 -75 -201 -120 -9 -16 -24 -38 -33 -48 -9
-10 -25 -58 -37 -107 l-21 -88 22 -89 c13 -56 37 -116 63 -162 23 -41 42 -75
42 -77 0 -2 32 -58 70 -125 39 -67 70 -124 70 -127 0 -20 103 -145 144 -174
88 -62 182 -79 434 -79 l212 0 3 -882 c3 -866 3 -885 24 -968 12 -46 27 -86
32 -88 6 -2 11 -8 11 -13 0 -21 48 -73 102 -110 92 -63 187 -79 464 -79 196 0
239 3 317 21 163 38 250 124 287 280 19 84 20 117 20 963 l0 876 212 0 c185 0
224 3 303 22 154 38 206 88 332 318 16 30 50 91 75 135 25 44 57 102 72 129
23 42 70 201 68 231 -2 30 -42 179 -49 184 -4 3 -19 23 -33 43 -14 21 -45 52
-70 70 -25 18 -47 35 -50 38 -3 3 -46 16 -95 28 l-91 22 -1309 -1 -1310 -1
-80 -22z m2844 -251 c2 -2 -12 -32 -32 -67 -19 -35 -49 -90 -67 -123 -18 -33
-58 -104 -88 -157 l-57 -98 -401 0 -401 0 -6 -157 c-4 -87 -7 -566 -7 -1065
l0 -908 -240 0 -241 0 -106 -105 c-58 -58 -107 -105 -109 -105 -2 0 -4 481 -4
1069 l0 1069 101 101 101 101 -401 0 -401 0 -106 -106 c-59 -58 -110 -102
-114 -97 -4 4 -36 62 -70 128 -35 66 -73 136 -85 155 -12 19 -36 62 -54 94
l-32 60 108 108 108 108 550 2 c633 3 2048 -2 2054 -7z"/>
<path d="M27080 11650 l0 -1310 90 0 90 0 0 1310 0 1310 -90 0 -90 0 0 -1310z"/>
<path d="M18340 11600 l0 -1260 90 0 90 0 2 435 3 435 469 -435 468 -435 127
0 126 1 -88 82 c-48 45 -272 253 -497 462 -225 209 -409 383 -409 386 -1 3
215 198 479 433 264 236 480 430 480 432 0 2 -57 4 -127 4 l-128 0 -450 -404
-450 -405 -3 765 -2 764 -90 0 -90 0 0 -1260z"/>
<path d="M22963 12613 l-83 -26 0 -223 0 -224 -195 0 -195 0 0 -90 0 -90 194
0 195 0 3 -652 c3 -642 4 -654 26 -718 43 -128 110 -199 230 -242 44 -16 89
-21 202 -25 80 -2 170 -1 200 4 l55 8 3 81 3 80 -154 -4 c-221 -6 -295 20
-350 122 -22 41 -22 42 -25 694 l-3 652 266 0 265 0 0 90 0 90 -265 0 -265 0
0 250 c0 194 -3 250 -12 249 -7 0 -50 -12 -95 -26z"/>
<path d="M11365 12170 c-181 -25 -342 -125 -437 -271 l-33 -52 -3 147 -3 146
-89 0 -90 0 0 -900 0 -900 90 0 89 0 3 588 c3 520 6 594 21 647 63 217 202
361 396 411 89 22 235 15 314 -15 160 -62 254 -206 277 -423 5 -51 10 -344 10
-650 l0 -558 90 0 89 0 4 598 c3 537 5 603 21 657 61 205 192 343 371 390 67
17 199 19 264 4 122 -28 234 -115 290 -227 60 -119 61 -126 61 -804 l0 -618
90 0 91 0 -3 663 -3 662 -27 80 c-74 216 -223 357 -438 411 -80 21 -252 23
-335 5 -170 -37 -311 -134 -410 -285 l-38 -57 -36 68 c-68 129 -195 228 -342
267 -73 19 -209 26 -284 16z"/>
<path d="M14849 12170 c-320 -38 -590 -230 -729 -521 -67 -142 -83 -218 -84
-409 0 -142 3 -177 23 -250 87 -322 320 -562 636 -655 111 -33 303 -44 420
-26 215 35 408 145 533 305 31 40 62 82 69 92 9 15 12 -20 12 -173 l1 -193 95
0 95 0 0 900 0 900 -95 0 -95 0 0 -197 0 -196 -49 69 c-139 198 -359 325 -613
353 -106 12 -122 12 -219 1z m307 -190 c273 -69 485 -281 554 -554 24 -95 27
-258 6 -357 -46 -216 -202 -417 -400 -514 -129 -64 -197 -79 -341 -79 -145 0
-212 15 -345 81 -81 40 -109 60 -191 142 -81 82 -102 110 -142 191 -62 127
-81 207 -81 350 0 137 23 232 85 350 101 196 274 333 489 389 104 27 260 28
366 1z"/>
<path d="M20941 12169 c-377 -44 -674 -294 -771 -651 -94 -347 -8 -719 220
-948 178 -181 407 -270 690 -270 260 0 483 80 645 232 66 61 135 147 135 167
0 6 -34 31 -76 55 l-77 45 -41 -57 c-137 -185 -374 -285 -636 -269 -200 13
-355 81 -491 216 -52 53 -100 111 -122 151 -39 70 -81 190 -91 258 l-6 42 815
0 815 0 0 108 c0 266 -94 498 -274 678 -143 143 -300 219 -501 243 -101 12
-128 12 -234 0z m346 -203 c245 -80 430 -310 471 -583 l9 -63 -724 0 -724 0 7
48 c37 257 211 483 444 578 107 43 173 54 310 50 102 -2 140 -8 207 -30z"/>
<path d="M25227 12169 c-156 -19 -316 -85 -439 -183 -62 -49 -145 -144 -181
-206 -12 -22 -25 -40 -29 -40 -5 0 -8 90 -8 200 l0 200 -90 0 -90 0 0 -1260 0
-1260 90 0 90 0 2 562 3 561 39 -59 c138 -208 334 -335 581 -375 117 -18 309
-7 420 26 417 123 684 503 662 945 -3 63 -15 152 -27 198 -66 269 -258 501
-508 614 -146 66 -351 97 -515 77z m289 -189 c364 -93 606 -422 581 -790 -22
-318 -222 -577 -527 -681 -87 -30 -105 -33 -225 -33 -156 -1 -219 13 -355 81
-169 84 -313 251 -374 433 -144 434 116 898 559 995 94 21 248 18 341 -5z"/>
<path d="M28869 12170 c-208 -26 -385 -108 -531 -248 -143 -137 -233 -302
-274 -503 -25 -123 -15 -332 21 -454 91 -309 317 -535 632 -632 81 -25 101
-27 263 -27 162 0 182 2 263 27 197 61 362 179 465 334 l37 56 3 -191 2 -192
95 0 95 0 0 900 0 900 -95 0 -95 0 0 -197 0 -198 -35 52 c-123 183 -339 325
-551 362 -89 15 -221 21 -295 11z m353 -202 c111 -37 201 -91 289 -176 160
-152 239 -335 239 -552 0 -151 -35 -277 -111 -408 -44 -73 -178 -207 -251
-251 -167 -98 -350 -131 -530 -97 -471 91 -741 567 -577 1019 86 237 276 408
529 477 108 29 302 23 412 -12z"/>
<path d="M31550 12169 c-211 -24 -412 -120 -556 -263 -109 -109 -179 -232
-230 -401 -25 -82 -28 -104 -28 -260 0 -186 9 -245 64 -382 60 -149 184 -306
313 -395 80 -55 207 -114 302 -140 69 -19 105 -22 260 -22 166 0 187 2 266 27
164 50 261 104 372 206 61 57 157 183 157 207 0 13 -127 94 -146 94 -5 -1 -25
-26 -44 -57 -43 -68 -138 -158 -217 -206 -32 -20 -102 -51 -154 -69 -89 -30
-102 -32 -234 -32 -125 0 -149 3 -225 28 -307 100 -507 353 -536 678 -12 142
30 320 108 453 24 42 75 104 125 152 70 70 100 91 186 132 123 59 214 81 342
81 125 0 219 -21 333 -76 108 -52 211 -143 269 -236 20 -32 37 -58 39 -58 9 0
144 83 144 89 0 15 -73 127 -116 177 -123 145 -335 249 -557 273 -107 12 -129
12 -237 0z"/>
<path d="M33940 12174 c-268 -25 -497 -141 -645 -327 -71 -89 -148 -246 -177
-362 -32 -129 -32 -371 0 -499 68 -273 237 -480 484 -595 151 -71 226 -86 438
-85 157 0 197 4 265 22 109 30 266 109 347 176 59 49 168 176 168 196 0 7
-125 86 -147 92 -6 2 -31 -25 -57 -59 -178 -236 -545 -327 -859 -213 -233 85
-396 266 -457 506 -11 43 -20 85 -20 96 0 17 30 18 815 18 l815 0 0 84 c0 391
-194 721 -511 870 -89 42 -165 63 -279 76 -83 10 -109 10 -180 4z m252 -193
c282 -72 484 -308 524 -613 l7 -48 -722 0 -721 0 0 23 c0 50 42 186 82 267 34
68 60 103 133 175 114 115 224 174 376 204 83 16 241 12 321 -8z"/>
<path d="M17445 12145 c-95 -21 -170 -53 -232 -99 -70 -51 -108 -93 -159 -177
l-39 -63 -3 167 -2 167 -90 0 -90 0 0 -900 0 -900 89 0 90 0 4 568 c4 630 3
625 73 771 49 101 145 196 245 244 70 33 197 67 254 67 25 0 25 1 25 85 l0 85
-52 -1 c-29 0 -80 -7 -113 -14z"/>
</g>
</svg>
